<?xml version="1.0" encoding="UTF-8" standalone="no"?>
<!-- Created with Inkscape (http://www.inkscape.org/) -->

<svg
   xmlns:dc="http://purl.org/dc/elements/1.1/"
   xmlns:cc="http://creativecommons.org/ns#"
   xmlns:rdf="http://www.w3.org/1999/02/22-rdf-syntax-ns#"
   xmlns:svg="http://www.w3.org/2000/svg"
   xmlns="http://www.w3.org/2000/svg"
   xmlns:sodipodi="http://sodipodi.sourceforge.net/DTD/sodipodi-0.dtd"
   xmlns:inkscape="http://www.inkscape.org/namespaces/inkscape"
   version="1.1"
   id="svg10"
   width="1733.3333"
   height="1733.3333"
   viewBox="0 0 1733.3333 1733.3333"
   sodipodi:docname="iso.svg"
   inkscape:version="0.92.4 (5da689c313, 2019-01-14)">
  <metadata
     id="metadata16">
    <rdf:RDF>
      <cc:Work
         rdf:about="">
        <dc:format>image/svg+xml</dc:format>
        <dc:type
           rdf:resource="http://purl.org/dc/dcmitype/StillImage" />
        <dc:title></dc:title>
      </cc:Work>
    </rdf:RDF>
  </metadata>
  <defs
     id="defs14" />
  <sodipodi:namedview
     pagecolor="#ffffff"
     bordercolor="#666666"
     borderopacity="1"
     objecttolerance="10"
     gridtolerance="10"
     guidetolerance="10"
     inkscape:pageopacity="0"
     inkscape:pageshadow="2"
     inkscape:window-width="1920"
     inkscape:window-height="1017"
     id="namedview12"
     showgrid="false"
     inkscape:zoom="0.49038464"
     inkscape:cx="866.66663"
     inkscape:cy="866.66663"
     inkscape:window-x="-8"
     inkscape:window-y="-8"
     inkscape:window-maximized="1"
     inkscape:current-layer="svg10" />
  <path
     style="fill:#000000;stroke-width:1.33333325"
     d="m 125.81372,1517.1311 c -5.52168,-2.4174 -12.63765,-9.576 -15.4863,-15.579 -2.09648,-4.418 -2.24899,-36.4522 -2.24899,-472.3832 0,-353.44593 0.38152,-468.98401 1.56232,-473.13186 1.36325,-4.78876 27.99361,-31.9322 209,-213.02686 l 207.43767,-207.53885 7.33334,-1.47832 c 5.30518,-1.06947 136.58185,-1.38139 474.66664,-1.12783 l 467.3333,0.35051 5.0286,3.12638 c 6.3386,3.94096 10.9604,10.01775 12.833,16.87362 2.0927,7.66112 2.0784,930.98471 -0.015,940.93441 l -1.4863,7.0656 -207.5137,207.4332 c -180.9707,180.9004 -208.2157,207.6336 -213.0018,209 -4.1602,1.1877 -118.6813,1.5405 -473.33331,1.458 -397.96602,-0.092 -468.48229,-0.3876 -472.11,-1.9758 z m 862.59798,-56.562 43.6667,-0.02 v -172.6668 -172.6666 l -239.66665,0.01 -239.66666,0.01 -172.60132,172.6542 -172.6013,172.6542 228.6013,0.3371 c 125.73073,0.1854 291.60131,0.1962 368.60131,0.024 77,-0.1723 159.65002,-0.3223 183.66662,-0.3334 z M 512.06205,834.88234 512.07845,595.21568 H 339.41179 166.74513 l -0.0205,41.66666 c -0.0107,22.91667 -0.0107,110.96667 0.001,195.66667 0.012,84.69999 0.0213,251.47809 0.0207,370.61799 l -0.001,216.6179 172.65029,-172.6179 172.6503,-172.618 z m 731.34965,432.33336 151.9956,-152 h -152.3311 -152.3311 v 152 c 0,83.6 0.151,152 0.3355,152 0.1845,0 68.7336,-68.4 152.3311,-152 z M 1032.0784,929.24107 V 801.93314 l -3,-0.64957 c -1.65,-0.35727 -8.4,-1.604 -15,-2.77052 -36.114,-6.38295 -75.8564,-25.65478 -107.19848,-51.98264 -38.96469,-32.73093 -69.37296,-84.68748 -78.09429,-133.4344 -1.16904,-6.53419 -2.41784,-13.23033 -2.77511,-14.88033 l -0.64957,-3 H 698.05302 570.74509 V 825.88234 1056.549 h 230.66666 230.66665 z m 404.324,-57.69206 c 0.1885,-101.75 0.043,-287.13251 -0.324,-411.96113 l -0.6667,-226.96112 -94.4734,94.48944 -94.4734,94.48945 9.5923,14.47168 c 17.8531,26.93432 30.3027,57.648 36.2713,89.4828 4.198,22.39034 4.198,60.92076 0,83.31109 -15.9008,84.80942 -74.7592,153.41084 -155.6654,181.43315 -12.7679,4.42226 -37.3054,10.24464 -43.1744,10.24464 h -2.7436 v 127.99999 128 h 172.6573 172.6573 z M 512.07842,384.54902 c 0,-83.6 -0.15098,-152 -0.33552,-152 -0.18454,0 -68.73356,68.4 -152.33114,152 L 207.41615,536.54901 h 152.33113 152.33114 z m 315.88446,141.03085 c 7.26035,-47.42767 36.23734,-99.55459 74.11553,-133.32701 81.41479,-72.58991 199.10519,-81.12739 289.10199,-20.97199 l 14.4352,9.64879 94.8432,-94.85699 94.8432,-94.85698 -122.6117,-0.004 c -341.06066,-0.0107 -634.41295,-0.012 -666.27855,-0.005 l -35.66666,0.009 v 172.66666 172.66666 h 127.7693 127.76931 z"
     id="path20"
     inkscape:connector-curvature="0" />
</svg>
