<?xml version="1.0" encoding="UTF-8" standalone="no"?>
<!-- Created with Inkscape (http://www.inkscape.org/) -->

<svg
   xmlns:dc="http://purl.org/dc/elements/1.1/"
   xmlns:cc="http://creativecommons.org/ns#"
   xmlns:rdf="http://www.w3.org/1999/02/22-rdf-syntax-ns#"
   xmlns:svg="http://www.w3.org/2000/svg"
   xmlns="http://www.w3.org/2000/svg"
   xmlns:sodipodi="http://sodipodi.sourceforge.net/DTD/sodipodi-0.dtd"
   xmlns:inkscape="http://www.inkscape.org/namespaces/inkscape"
   version="1.1"
   id="svg154"
   width="1733.3333"
   height="1733.3333"
   viewBox="0 0 1733.3333 1733.3333"
   sodipodi:docname="back.svg"
   inkscape:version="0.92.4 (5da689c313, 2019-01-14)">
  <metadata
     id="metadata160">
    <rdf:RDF>
      <cc:Work
         rdf:about="">
        <dc:format>image/svg+xml</dc:format>
        <dc:type
           rdf:resource="http://purl.org/dc/dcmitype/StillImage" />
        <dc:title />
      </cc:Work>
    </rdf:RDF>
  </metadata>
  <defs
     id="defs158" />
  <sodipodi:namedview
     pagecolor="#ffffff"
     bordercolor="#666666"
     borderopacity="1"
     objecttolerance="10"
     gridtolerance="10"
     guidetolerance="10"
     inkscape:pageopacity="0"
     inkscape:pageshadow="2"
     inkscape:window-width="640"
     inkscape:window-height="480"
     id="namedview156"
     showgrid="false"
     inkscape:zoom="0.13615385"
     inkscape:cx="866.66661"
     inkscape:cy="866.66661"
     inkscape:window-x="0"
     inkscape:window-y="0"
     inkscape:window-maximized="0"
     inkscape:current-layer="svg154" />
  <path
     style="fill:#000000;stroke-width:1.33333325"
     d="m 198.41325,1587.294 c -5.52168,-2.4174 -12.63765,-9.576 -15.4863,-15.579 -2.09643,-4.418 -2.24903,-36.4522 -2.24903,-472.3832 0,-353.446 0.3816,-468.98408 1.5624,-473.13193 1.36321,-4.78876 27.99357,-31.9322 208.99996,-213.02686 l 207.43767,-207.53885 7.33334,-1.47832 c 5.30518,-1.06947 136.58185,-1.38139 474.66671,-1.12783 l 467.3333,0.35051 5.0286,3.12638 c 6.3386,3.94096 10.9604,10.01775 12.833,16.87362 2.0927,7.66112 2.0784,930.98478 -0.015,940.93448 l -1.4863,7.0656 -207.5137,207.4332 c -180.9707,180.9004 -208.2157,207.6336 -213.0018,209 -4.1602,1.1877 -118.6813,1.5405 -473.33338,1.458 -397.96602,-0.092 -468.48229,-0.3876 -472.11,-1.9758 z m 862.59805,-56.562 43.6667,-0.02 v -172.6668 -172.6666 l -239.66672,0.01 -239.66666,0.01 -172.60132,172.6542 -172.6013,172.6542 228.6013,0.3371 c 125.73073,0.1854 291.60131,0.1962 368.60131,0.024 77,-0.1723 159.65009,-0.3223 183.66669,-0.3334 z M 584.66158,905.04517 584.67798,665.37851 H 412.01132 239.34466 l -0.0205,41.66666 c -0.0107,22.91667 -0.0107,110.96667 0.001,195.66667 0.012,84.70003 0.0213,251.47816 0.0207,370.61806 l -10e-4,216.6179 172.65029,-172.6179 172.6503,-172.618 z m 731.34972,432.33343 151.9956,-152 h -152.3311 -152.3311 v 152 c 0,83.6 0.151,152 0.3355,152 0.1845,0 68.7336,-68.4 152.3311,-152 z M 584.67795,454.71185 c 0,-83.6 -0.15098,-152 -0.33552,-152 -0.18454,0 -68.73356,68.4 -152.33114,152 L 280.01568,606.71184 h 152.33113 152.33114 z"
     id="path181"
     inkscape:connector-curvature="0" />
</svg>
