<?xml version="1.0" encoding="UTF-8" standalone="no"?>
<!-- Created with Inkscape (http://www.inkscape.org/) -->

<svg
   xmlns:dc="http://purl.org/dc/elements/1.1/"
   xmlns:cc="http://creativecommons.org/ns#"
   xmlns:rdf="http://www.w3.org/1999/02/22-rdf-syntax-ns#"
   xmlns:svg="http://www.w3.org/2000/svg"
   xmlns="http://www.w3.org/2000/svg"
   xmlns:sodipodi="http://sodipodi.sourceforge.net/DTD/sodipodi-0.dtd"
   xmlns:inkscape="http://www.inkscape.org/namespaces/inkscape"
   version="1.1"
   id="svg102"
   width="1733.3333"
   height="1733.3333"
   viewBox="0 0 1733.3333 1733.3333"
   sodipodi:docname="default.svg"
   inkscape:version="0.92.4 (5da689c313, 2019-01-14)">
  <metadata
     id="metadata108">
    <rdf:RDF>
      <cc:Work
         rdf:about="">
        <dc:format>image/svg+xml</dc:format>
        <dc:type
           rdf:resource="http://purl.org/dc/dcmitype/StillImage" />
        <dc:title />
      </cc:Work>
    </rdf:RDF>
  </metadata>
  <defs
     id="defs106" />
  <sodipodi:namedview
     pagecolor="#ffffff"
     bordercolor="#666666"
     borderopacity="1"
     objecttolerance="10"
     gridtolerance="10"
     guidetolerance="10"
     inkscape:pageopacity="0"
     inkscape:pageshadow="2"
     inkscape:window-width="1920"
     inkscape:window-height="1017"
     id="namedview104"
     showgrid="false"
     inkscape:zoom="0.13615385"
     inkscape:cx="-199.15563"
     inkscape:cy="1542.0532"
     inkscape:window-x="-8"
     inkscape:window-y="-8"
     inkscape:window-maximized="1"
     inkscape:current-layer="svg102" />
  <path
     style="fill:#000000;stroke-width:1.33333325"
     d="m 176.37934,1550.5709 c -5.5217,-2.4175 -12.6376,-9.576 -15.4863,-15.5791 -2.0965,-4.418 -2.249,-36.4521 -2.249,-472.3833 0,-353.44585 0.3815,-468.98392 1.5623,-473.13178 1.3633,-4.78876 27.9937,-31.9322 209,-213.02686 l 207.4377,-207.53885 7.3333,-1.47832 c 5.3052,-1.06947 136.5819,-1.38139 474.66666,-1.12783 l 467.3333,0.35051 5.0286,3.12639 c 6.3386,3.94096 10.9604,10.01774 12.833,16.87361 2.0927,7.66112 2.0784,930.98463 -0.015,940.93433 l -1.4863,7.0656 -207.5137,207.4332 c -180.9707,180.9005 -208.2157,207.6337 -213.0018,209.0001 -4.1602,1.1877 -118.6813,1.5405 -473.33326,1.458 -397.966,-0.092 -468.4823,-0.3876 -472.11,-1.9757 z m 862.59796,-56.562 43.6667,-0.02 v -172.6667 -172.6667 l -239.66666,0.01 -239.6666,0.01 -172.6013,172.6542 -172.6013,172.6543 228.6013,0.3371 c 125.7307,0.1855 291.6013,0.1963 368.6013,0.024 77,-0.1723 159.64996,-0.3223 183.66656,-0.3333 z m -476.34966,-625.68688 0.016,-239.66666 h -172.6667 -172.6666 l -0.02,41.66667 c -0.011,22.91666 -0.011,110.96666 0.001,195.66666 0.012,84.7 0.021,251.47801 0.021,370.61791 l -0.001,216.618 172.6503,-172.618 172.6503,-172.618 z m 731.34966,432.33328 151.9956,-152 h -152.3311 -152.3311 v 152 c 0,83.6001 0.151,152.0001 0.3355,152.0001 0.1845,0 68.7335,-68.4 152.3311,-152.0001 z M 1082.644,859.32203 V 628.65536 H 851.97734 621.31074 v 230.66667 230.66657 h 230.6666 230.66666 z m 404.324,45.66666 c 0.1885,-101.75 0.1892,-287.27222 0,-412.2716 l -0.3393,-227.27163 -172.6496,172.60496 -172.6496,172.60494 -0.01,239.66667 -0.01,239.66657 h 172.6573 172.6573 z M 562.64404,417.9887 c 0,-83.6 -0.151,-152 -0.3355,-152 -0.1846,0 -68.7336,68.4 -152.3312,152 l -151.9956,152 h 152.3312 152.3311 z m 710.62146,-20.68421 172.6214,-172.64912 -122.6214,-0.004 c -341.09416,-0.0107 -634.42256,-0.012 -666.28816,-0.005 l -35.6666,0.009 V 397.32203 569.9887 l 239.6666,-0.0176 239.66666,-0.0175 172.6215,-172.64913 z"
     id="path216"
     inkscape:connector-curvature="0" />
</svg>
