<?xml version="1.0" encoding="UTF-8" standalone="no"?>
<!-- Created with Inkscape (http://www.inkscape.org/) -->

<svg
   xmlns:dc="http://purl.org/dc/elements/1.1/"
   xmlns:cc="http://creativecommons.org/ns#"
   xmlns:rdf="http://www.w3.org/1999/02/22-rdf-syntax-ns#"
   xmlns:svg="http://www.w3.org/2000/svg"
   xmlns="http://www.w3.org/2000/svg"
   xmlns:sodipodi="http://sodipodi.sourceforge.net/DTD/sodipodi-0.dtd"
   xmlns:inkscape="http://www.inkscape.org/namespaces/inkscape"
   version="1.1"
   id="svg10"
   width="1365.3333"
   height="1365.3333"
   viewBox="0 0 1365.3333 1365.3333"
   sodipodi:docname="empty.svg"
   inkscape:version="0.92.4 (5da689c313, 2019-01-14)">
  <metadata
     id="metadata16">
    <rdf:RDF>
      <cc:Work
         rdf:about="">
        <dc:format>image/svg+xml</dc:format>
        <dc:type
           rdf:resource="http://purl.org/dc/dcmitype/StillImage" />
        <dc:title></dc:title>
      </cc:Work>
    </rdf:RDF>
  </metadata>
  <defs
     id="defs14" />
  <sodipodi:namedview
     pagecolor="#ffffff"
     bordercolor="#666666"
     borderopacity="1"
     objecttolerance="10"
     gridtolerance="10"
     guidetolerance="10"
     inkscape:pageopacity="0"
     inkscape:pageshadow="2"
     inkscape:window-width="640"
     inkscape:window-height="480"
     id="namedview12"
     showgrid="false"
     inkscape:zoom="0.62255863"
     inkscape:cx="682.66663"
     inkscape:cy="682.66663"
     inkscape:window-x="0"
     inkscape:window-y="0"
     inkscape:window-maximized="1"
     inkscape:current-layer="svg10" />
  <path
     style="fill:#000000;stroke-width:1.33333325"
     d="m 340.25526,1005.0601 c -6.37544,-2.0303 -15.04388,-11.05155 -17.04057,-17.73405 -2.26025,-7.5646 -2.39723,-461.49995 -0.14211,-470.92152 1.41698,-5.91992 7.14684,-11.90399 106.33333,-111.05052 l 104.83565,-104.79344 7.10172,-1.53989 c 5.21423,-1.13063 67.70664,-1.53991 235.12812,-1.53991 252.1213,0 237.5552,-0.49682 246.175,8.39658 8.7236,9.00041 8.2315,-5.66792 8.2474,245.83503 0.011,167.38562 -0.3954,230.12491 -1.5228,235.33333 l -1.5372,7.10172 -104.7961,104.83001 c -99.0972,99.12921 -105.1364,104.91176 -111.0532,106.33336 -8.8155,2.118 -465.05257,1.8755 -471.72924,-0.2507 z M 776.2416,880.14742 V 808.14743 H 667.23693 558.23231 l -71.99075,71.99999 -71.99074,72.00003 H 595.24619 776.2416 Z M 520.24156,661.15206 V 552.14743 h -71.99999 -72 V 733.1428 914.13817 l 72,-71.99074 71.99999,-71.99075 z m 364.66664,198.99536 51.9872,-51.99999 h -52.3269 -52.3269 v 51.99999 c 0,28.6 0.1528,52 0.3397,52 0.1869,0 23.734,-23.4 52.3269,-52 z M 776.2416,652.14743 v -100 h -100 -100.00004 v 100 100 h 100.00004 100 z M 976.2415,571.15206 V 390.15669 l -72,71.99074 -71.9999,71.99075 V 643.1428 752.14743 h 71.9999 72 z M 520.24156,443.82052 V 391.4936 l -51.99999,51.98717 c -28.6,28.59294 -52,52.14006 -52,52.32692 0,0.18686 23.4,0.33974 52,0.33974 h 51.99999 z m 346.00004,-19.67308 71.9907,-72 H 757.2369 576.24156 v 72 71.99999 H 685.2462 794.2508 Z"
     id="path20"
     inkscape:connector-curvature="0" />
</svg>
