<?xml version="1.0" encoding="UTF-8" standalone="no"?>
<!-- Created with Inkscape (http://www.inkscape.org/) -->

<svg
   xmlns:dc="http://purl.org/dc/elements/1.1/"
   xmlns:cc="http://creativecommons.org/ns#"
   xmlns:rdf="http://www.w3.org/1999/02/22-rdf-syntax-ns#"
   xmlns:svg="http://www.w3.org/2000/svg"
   xmlns="http://www.w3.org/2000/svg"
   xmlns:sodipodi="http://sodipodi.sourceforge.net/DTD/sodipodi-0.dtd"
   xmlns:inkscape="http://www.inkscape.org/namespaces/inkscape"
   version="1.1"
   id="svg22"
   width="1365.3333"
   height="1365.3333"
   viewBox="0 0 1365.3333 1365.3333"
   sodipodi:docname="front.svg"
   inkscape:version="0.92.4 (5da689c313, 2019-01-14)">
  <metadata
     id="metadata28">
    <rdf:RDF>
      <cc:Work
         rdf:about="">
        <dc:format>image/svg+xml</dc:format>
        <dc:type
           rdf:resource="http://purl.org/dc/dcmitype/StillImage" />
        <dc:title></dc:title>
      </cc:Work>
    </rdf:RDF>
  </metadata>
  <defs
     id="defs26" />
  <sodipodi:namedview
     pagecolor="#ffffff"
     bordercolor="#666666"
     borderopacity="1"
     objecttolerance="10"
     gridtolerance="10"
     guidetolerance="10"
     inkscape:pageopacity="0"
     inkscape:pageshadow="2"
     inkscape:window-width="1920"
     inkscape:window-height="1017"
     id="namedview24"
     showgrid="false"
     inkscape:zoom="0.48889808"
     inkscape:cx="672.33321"
     inkscape:cy="603.26345"
     inkscape:window-x="-8"
     inkscape:window-y="-8"
     inkscape:window-maximized="1"
     inkscape:current-layer="svg22" />
  <path
     style="fill:#000000;stroke-width:1.33333325"
     d="m 311.67774,1049.7768 c -6.3754,-2.0303 -15.0439,-11.0515 -17.0405,-17.734 -2.2603,-7.5646 -2.3973,-461.49998 -0.1422,-470.92155 1.417,-5.91992 7.1469,-11.90399 106.3334,-111.05052 l 104.8356,-104.79344 7.1017,-1.53989 c 5.2143,-1.13063 67.7067,-1.53991 235.1282,-1.53991 252.12126,0 237.5552,-0.49682 246.175,8.39658 8.72356,9.00041 8.23146,-5.66792 8.24736,245.83503 0.011,167.38562 -0.3954,230.12491 -1.5228,235.33333 l -1.53716,7.10172 -104.7961,104.83001 c -99.0972,99.12924 -105.1364,104.91174 -111.0533,106.33334 -8.8154,2.118 -465.0525,1.8755 -471.7292,-0.2507 z m 544.653,-144.91266 51.9872,-51.99999 h -52.327 -52.3269 v 51.99999 c 0,28.6 0.1529,52.00003 0.3398,52.00003 0.1868,0 23.7339,-23.40003 52.3269,-52.00003 z m 91.3333,-288.99536 V 434.87341 l -72,71.99074 -72,71.99075 v 109.00462 109.00463 h 72 72 z m -456,-127.33154 v -52.32692 l -52,51.98717 c -28.6,28.59294 -52,52.14006 -52,52.32692 0,0.18686 23.4,0.33974 52,0.33974 h 52 z m 346,-19.67308 71.9908,-72 h -180.9954 -180.9954 v 72 71.99999 h 109.0047 109.0046 z"
     id="path32"
     inkscape:connector-curvature="0" />
</svg>
