<?xml version="1.0" encoding="UTF-8" standalone="no"?>
<!-- Created with Inkscape (http://www.inkscape.org/) -->

<svg
   xmlns:dc="http://purl.org/dc/elements/1.1/"
   xmlns:cc="http://creativecommons.org/ns#"
   xmlns:rdf="http://www.w3.org/1999/02/22-rdf-syntax-ns#"
   xmlns:svg="http://www.w3.org/2000/svg"
   xmlns="http://www.w3.org/2000/svg"
   xmlns:sodipodi="http://sodipodi.sourceforge.net/DTD/sodipodi-0.dtd"
   xmlns:inkscape="http://www.inkscape.org/namespaces/inkscape"
   version="1.1"
   id="svg34"
   width="1365.3333"
   height="1365.3333"
   viewBox="0 0 1365.3333 1365.3333"
   sodipodi:docname="right.svg"
   inkscape:version="0.92.4 (5da689c313, 2019-01-14)">
  <metadata
     id="metadata40">
    <rdf:RDF>
      <cc:Work
         rdf:about="">
        <dc:format>image/svg+xml</dc:format>
        <dc:type
           rdf:resource="http://purl.org/dc/dcmitype/StillImage" />
        <dc:title></dc:title>
      </cc:Work>
    </rdf:RDF>
  </metadata>
  <defs
     id="defs38" />
  <sodipodi:namedview
     pagecolor="#ffffff"
     bordercolor="#666666"
     borderopacity="1"
     objecttolerance="10"
     gridtolerance="10"
     guidetolerance="10"
     inkscape:pageopacity="0"
     inkscape:pageshadow="2"
     inkscape:window-width="1920"
     inkscape:window-height="1017"
     id="namedview36"
     showgrid="false"
     inkscape:zoom="0.17285157"
     inkscape:cx="682.66663"
     inkscape:cy="682.66663"
     inkscape:window-x="-8"
     inkscape:window-y="-8"
     inkscape:window-maximized="1"
     inkscape:current-layer="svg34" />
  <path
     style="fill:#000000;stroke-width:1.33333325"
     d="m 317.75383,1041.3646 c -6.3755,-2.0303 -15.0439,-11.0515 -17.0406,-17.734 -2.2603,-7.5646 -2.3972,-461.49997 -0.1421,-470.92154 1.417,-5.91992 7.1468,-11.90399 106.3333,-111.05052 l 104.8357,-104.79344 7.1017,-1.53989 c 5.2142,-1.13063 67.7066,-1.53991 235.12811,-1.53991 252.12126,0 237.55521,-0.49682 246.17496,8.39658 8.7236,9.00041 8.2315,-5.66792 8.2474,245.83503 0.011,167.38562 -0.3954,230.12491 -1.5228,235.33333 l -1.5372,7.10172 -104.79606,104.83001 C 801.43906,1034.4112 795.39983,1040.1937 789.483,1041.6153 c -8.81544,2.118 -465.05257,1.8755 -471.72917,-0.2507 z M 753.7401,916.45195 V 844.45196 H 644.73547 535.73083 l -71.9907,71.99999 -71.9908,72 H 572.74473 753.7401 Z M 497.74013,697.45659 V 588.45196 h -72 -72 V 769.44733 950.4427 l 72,-71.99074 72,-71.99075 z m 255.99997,-9.00463 v -100 h -100 -99.99997 v 100 100 h 99.99997 100 z M 497.74013,480.12505 v -52.32692 l -52,51.98717 c -28.6,28.59294 -52,52.14006 -52,52.32692 0,0.18686 23.4,0.33974 52,0.33974 h 52 z m 345.99997,-19.67308 71.99074,-72 H 734.73547 553.74013 v 72 71.99999 h 109.0046 109.00462 z"
     id="path44"
     inkscape:connector-curvature="0" />
</svg>
