<?xml version="1.0" encoding="UTF-8" standalone="no"?>
<!-- Created with Inkscape (http://www.inkscape.org/) -->

<svg
   xmlns:dc="http://purl.org/dc/elements/1.1/"
   xmlns:cc="http://creativecommons.org/ns#"
   xmlns:rdf="http://www.w3.org/1999/02/22-rdf-syntax-ns#"
   xmlns:svg="http://www.w3.org/2000/svg"
   xmlns="http://www.w3.org/2000/svg"
   xmlns:sodipodi="http://sodipodi.sourceforge.net/DTD/sodipodi-0.dtd"
   xmlns:inkscape="http://www.inkscape.org/namespaces/inkscape"
   version="1.1"
   id="svg10"
   width="1365.3333"
   height="1365.3333"
   viewBox="0 0 1365.3333 1365.3333"
   sodipodi:docname="top.svg"
   inkscape:version="0.92.4 (5da689c313, 2019-01-14)">
  <metadata
     id="metadata16">
    <rdf:RDF>
      <cc:Work
         rdf:about="">
        <dc:format>image/svg+xml</dc:format>
        <dc:type
           rdf:resource="http://purl.org/dc/dcmitype/StillImage" />
        <dc:title></dc:title>
      </cc:Work>
    </rdf:RDF>
  </metadata>
  <defs
     id="defs14" />
  <sodipodi:namedview
     pagecolor="#ffffff"
     bordercolor="#666666"
     borderopacity="1"
     objecttolerance="10"
     gridtolerance="10"
     guidetolerance="10"
     inkscape:pageopacity="0"
     inkscape:pageshadow="2"
     inkscape:window-width="1920"
     inkscape:window-height="1017"
     id="namedview12"
     showgrid="false"
     inkscape:zoom="0.62255863"
     inkscape:cx="682.66663"
     inkscape:cy="682.66663"
     inkscape:window-x="-8"
     inkscape:window-y="-8"
     inkscape:window-maximized="1"
     inkscape:current-layer="svg10" />
  <path
     style="fill:#000000;stroke-width:1.33333325"
     d="m 346.68035,1009.8789 c -6.37544,-2.0303 -15.04388,-11.05149 -17.04057,-17.73399 -2.26025,-7.5646 -2.39723,-461.49998 -0.14211,-470.92155 1.41698,-5.91992 7.14684,-11.90399 106.33333,-111.05052 l 104.83565,-104.79344 7.10172,-1.53989 c 5.21423,-1.13063 67.70664,-1.53991 235.12812,-1.53991 252.12131,0 237.55521,-0.49682 246.17501,8.39658 8.7236,9.00041 8.2315,-5.66792 8.2474,245.83503 0.011,167.38562 -0.3954,230.12491 -1.5228,235.33333 l -1.5372,7.10172 -104.79611,104.83001 c -99.09718,99.12923 -105.13641,104.91173 -111.05324,106.33333 -8.81544,2.118 -465.05253,1.8755 -471.7292,-0.2507 z M 782.66665,884.96625 V 812.96626 H 673.66202 564.6574 l -71.99075,71.99999 -71.99074,72 h 180.99537 180.99537 z m -256,-218.99536 V 556.96626 h -71.99999 -72 V 737.96163 918.957 l 72,-71.99074 71.99999,-71.99075 z m 364.66666,198.99536 51.98717,-51.99999 h -52.32692 -52.32691 v 51.99999 c 0,28.6 0.15288,52 0.33974,52 0.18686,0 23.73398,-23.4 52.32692,-52 z M 782.66665,656.96626 v -100 h -100 -100 v 100 100 h 100 100 z M 982.66664,575.97089 V 394.97552 l -72,71.99074 -71.99999,71.99075 v 109.00462 109.00463 h 71.99999 72 z"
     id="path20"
     inkscape:connector-curvature="0" />
</svg>
