<?xml version="1.0" encoding="UTF-8" standalone="no"?>
<!-- Created with Inkscape (http://www.inkscape.org/) -->

<svg
   xmlns:dc="http://purl.org/dc/elements/1.1/"
   xmlns:cc="http://creativecommons.org/ns#"
   xmlns:rdf="http://www.w3.org/1999/02/22-rdf-syntax-ns#"
   xmlns:svg="http://www.w3.org/2000/svg"
   xmlns="http://www.w3.org/2000/svg"
   xmlns:sodipodi="http://sodipodi.sourceforge.net/DTD/sodipodi-0.dtd"
   xmlns:inkscape="http://www.inkscape.org/namespaces/inkscape"
   version="1.1"
   id="svg114"
   width="1733.3333"
   height="1733.3333"
   viewBox="0 0 1733.3333 1733.3333"
   sodipodi:docname="front.svg"
   inkscape:version="0.92.4 (5da689c313, 2019-01-14)">
  <metadata
     id="metadata120">
    <rdf:RDF>
      <cc:Work
         rdf:about="">
        <dc:format>image/svg+xml</dc:format>
        <dc:type
           rdf:resource="http://purl.org/dc/dcmitype/StillImage" />
        <dc:title />
      </cc:Work>
    </rdf:RDF>
  </metadata>
  <defs
     id="defs118" />
  <sodipodi:namedview
     pagecolor="#ffffff"
     bordercolor="#666666"
     borderopacity="1"
     objecttolerance="10"
     gridtolerance="10"
     guidetolerance="10"
     inkscape:pageopacity="0"
     inkscape:pageshadow="2"
     inkscape:window-width="1920"
     inkscape:window-height="1017"
     id="namedview116"
     showgrid="false"
     inkscape:zoom="0.13615385"
     inkscape:cx="866.66661"
     inkscape:cy="866.66661"
     inkscape:window-x="-8"
     inkscape:window-y="-8"
     inkscape:window-maximized="1"
     inkscape:current-layer="svg114" />
  <path
     style="fill:#000000;stroke-width:1.33333325"
     d="m 161.69009,1550.5707 c -5.52168,-2.4174 -12.6377,-9.576 -15.4863,-15.579 -2.0965,-4.418 -2.249,-36.4522 -2.249,-472.3832 0,-353.44585 0.3815,-468.98393 1.5623,-473.13178 1.3633,-4.78876 27.99364,-31.9322 209.00003,-213.02686 l 207.43767,-207.53885 7.33334,-1.47832 c 5.30518,-1.06947 136.58185,-1.38139 474.66667,-1.12783 l 467.3333,0.35051 5.0286,3.12638 c 6.3386,3.94096 10.9604,10.01775 12.833,16.87362 2.0927,7.66112 2.0784,930.98463 -0.015,940.93433 l -1.4863,7.0656 -207.5137,207.4332 c -180.9707,180.9004 -208.2157,207.6336 -213.0018,209 -4.1602,1.1877 -118.68133,1.5405 -473.33334,1.458 -397.96602,-0.092 -468.48229,-0.3876 -472.11,-1.9758 z m 1117.59801,-249.9154 151.9956,-152 h -152.3311 -152.3311 v 152 c 0,83.6 0.151,152 0.3355,152 0.1845,0 68.7336,-68.4 152.3311,-152 z m 192.9907,-395.66661 c 0.1885,-101.75 0.1892,-287.27223 0,-412.27161 l -0.3393,-227.27162 -172.6496,172.60495 -172.6496,172.60495 -0.01,239.66666 -0.01,239.66658 h 172.6573 172.6573 z M 547.95479,417.9887 c 0,-83.6 -0.15098,-152 -0.33552,-152 -0.18454,0 -68.73356,68.4 -152.33114,152 L 243.29252,569.98869 h 152.33113 152.33114 z m 710.62151,-20.68422 172.6214,-172.64911 -122.6214,-0.004 c -341.09421,-0.0107 -634.42258,-0.012 -666.28818,-0.005 l -35.66666,0.009 v 172.66666 172.66666 l 239.66666,-0.0176 239.66668,-0.0175 172.6215,-172.64913 z"
     id="path209"
     inkscape:connector-curvature="0" />
</svg>
